TITLE ""
FILE "Disc1Track43.mp3" MP3
  TRACK 01 AUDIO
    TITLE "Disc1Track43_01"
    INDEX 01 00:00:00
  TRACK 02 AUDIO
    TITLE "Disc1Track43_02"
    INDEX 01 00:01:08
  TRACK 03 AUDIO
    TITLE "Disc1Track43_03"
    INDEX 01 00:03:63
  TRACK 04 AUDIO
    TITLE "Disc1Track43_04"
    INDEX 01 00:05:06
  TRACK 05 AUDIO
    TITLE "Disc1Track43_05"
    INDEX 01 00:05:37
  TRACK 06 AUDIO
    TITLE "Disc1Track43_06"
    INDEX 01 00:06:62
  TRACK 07 AUDIO
    TITLE "Disc1Track43_07"
    INDEX 01 00:07:59
  TRACK 08 AUDIO
    TITLE "Disc1Track43_08"
    INDEX 01 00:09:09
  TRACK 09 AUDIO
    TITLE "Disc1Track43_09"
    INDEX 01 00:10:73
  TRACK 10 AUDIO
    TITLE "Disc1Track43_10"
    INDEX 01 00:11:30
  TRACK 11 AUDIO
    TITLE "Disc1Track43_11"
    INDEX 01 00:12:61
  TRACK 12 AUDIO
    TITLE "Disc1Track43_12"
    INDEX 01 00:13:56
  TRACK 13 AUDIO
    TITLE "Disc1Track43_13"
    INDEX 01 00:15:10
  TRACK 14 AUDIO
    TITLE "Disc1Track43_14"
    INDEX 01 00:17:60
  TRACK 15 AUDIO
    TITLE "Disc1Track43_15"
    INDEX 01 00:18:16
  TRACK 16 AUDIO
    TITLE "Disc1Track43_16"
    INDEX 01 00:19:43
  TRACK 17 AUDIO
    TITLE "Disc1Track43_17"
    INDEX 01 00:21:03
  TRACK 18 AUDIO
    TITLE "Disc1Track43_18"
    INDEX 01 00:22:28
  TRACK 19 AUDIO
    TITLE "Disc1Track43_19"
    INDEX 01 00:26:49
  TRACK 20 AUDIO
    TITLE "Disc1Track43_20"
    INDEX 01 00:27:05
  TRACK 21 AUDIO
    TITLE "Disc1Track43_21"
    INDEX 01 00:28:28
  TRACK 22 AUDIO
    TITLE "Disc1Track43_22"
    INDEX 01 00:30:60
  TRACK 23 AUDIO
    TITLE "Disc1Track43_23"
    INDEX 01 00:32:08
  TRACK 24 AUDIO
    TITLE "Disc1Track43_24"
    INDEX 01 00:34:43
  TRACK 25 AUDIO
    TITLE "Disc1Track43_25"
    INDEX 01 00:34:74
  TRACK 26 AUDIO
    TITLE "Disc1Track43_26"
    INDEX 01 00:36:22
  TRACK 27 AUDIO
    TITLE "Disc1Track43_27"
    INDEX 01 00:37:58
  TRACK 28 AUDIO
    TITLE "Disc1Track43_28"
    INDEX 01 00:39:06
  TRACK 29 AUDIO
    TITLE "Disc1Track43_29"
    INDEX 01 00:43:20
  TRACK 30 AUDIO
    TITLE "Disc1Track43_30"
    INDEX 01 00:43:51
  TRACK 31 AUDIO
    TITLE "Disc1Track43_31"
    INDEX 01 00:44:72
  TRACK 32 AUDIO
    TITLE "Disc1Track43_32"
    INDEX 01 00:46:20
  TRACK 33 AUDIO
    TITLE "Disc1Track43_33"
    INDEX 01 00:47:41
  TRACK 34 AUDIO
    TITLE "Disc1Track43_34"
    INDEX 01 00:51:61
  TRACK 35 AUDIO
    TITLE "Disc1Track43_35"
    INDEX 01 00:52:17
  TRACK 36 AUDIO
    TITLE "Disc1Track43_36"
    INDEX 01 00:53:40
  TRACK 37 AUDIO
    TITLE "Disc1Track43_37"
    INDEX 01 00:56:05
  TRACK 38 AUDIO
    TITLE "Disc1Track43_38"
    INDEX 01 00:57:28
  TRACK 39 AUDIO
    TITLE "Disc1Track43_39"
    INDEX 01 00:57:59
  TRACK 40 AUDIO
    TITLE "Disc1Track43_40"
    INDEX 01 00:59:19
  TRACK 41 AUDIO
    TITLE "Disc1Track43_41"
    INDEX 01 01:00:36
  TRACK 42 AUDIO
    TITLE "Disc1Track43_42"
    INDEX 01 01:01:71
